<svg xmlns="http://www.w3.org/2000/svg" xmlns:rdkit="http://www.rdkit.org/xml" xmlns:xlink="http://www.w3.org/1999/xlink" version="1.1" baseProfile="full" xml:space="preserve" width="150px" height="150px" viewBox="0 0 150 150">
<!-- END OF HEADER -->

<ellipse cx="45.2" cy="129.2" rx="13.3" ry="13.3" class="atom-2" style="fill:#9999E5;fill-rule:evenodd;stroke:#9999E5;stroke-width:1.0px;stroke-linecap:butt;stroke-linejoin:miter;stroke-opacity:1"/>
<path class="bond-0 atom-0 atom-1" d="M 21.3,18.3 L 65.1,65.9" style="fill:none;fill-rule:evenodd;stroke:#E5E5E5;stroke-width:3.5px;stroke-linecap:butt;stroke-linejoin:miter;stroke-opacity:1"/>
<path class="bond-1 atom-1 atom-2" d="M 61.2,61.7 L 52.7,88.9" style="fill:none;fill-rule:evenodd;stroke:#000000;stroke-width:2.0px;stroke-linecap:butt;stroke-linejoin:miter;stroke-opacity:1"/>
<path class="bond-1 atom-1 atom-2" d="M 52.7,88.9 L 44.1,116.0" style="fill:none;fill-rule:evenodd;stroke:#FF0000;stroke-width:2.0px;stroke-linecap:butt;stroke-linejoin:miter;stroke-opacity:1"/>
<path class="bond-1 atom-1 atom-2" d="M 70.7,64.7 L 62.2,91.8" style="fill:none;fill-rule:evenodd;stroke:#000000;stroke-width:2.0px;stroke-linecap:butt;stroke-linejoin:miter;stroke-opacity:1"/>
<path class="bond-1 atom-1 atom-2" d="M 62.2,91.8 L 53.6,119.0" style="fill:none;fill-rule:evenodd;stroke:#FF0000;stroke-width:2.0px;stroke-linecap:butt;stroke-linejoin:miter;stroke-opacity:1"/>
<path class="bond-2 atom-1 atom-3" d="M 65.1,65.9 L 124.3,52.7" style="fill:none;fill-rule:evenodd;stroke:#E5E5E5;stroke-width:3.5px;stroke-linecap:butt;stroke-linejoin:miter;stroke-opacity:1"/>
<path d="M 62.9,63.5 L 65.1,65.9 L 68.0,65.2" style="fill:none;stroke:#E5E5E5;stroke-width:3.5px;stroke-linecap:butt;stroke-linejoin:miter;stroke-opacity:1;"/>
<path class="atom-0" d="M 16.6 15.0 L 19.4 12.1 L 15.7 11.4 L 16.3 9.5 L 19.6 11.2 L 19.2 7.5 L 21.2 7.5 L 20.6 11.2 L 24.0 9.6 L 24.6 11.4 L 20.9 12.1 L 23.5 14.9 L 21.9 16.1 L 20.1 12.6 L 18.2 16.1 L 16.6 15.0 " fill="#191919"/>
<path class="atom-2" d="M 36.6 129.3 Q 36.6 124.8, 38.8 122.2 Q 41.0 119.7, 45.2 119.7 Q 49.4 119.7, 51.6 122.2 Q 53.8 124.8, 53.8 129.3 Q 53.8 133.8, 51.6 136.4 Q 49.3 139.0, 45.2 139.0 Q 41.1 139.0, 38.8 136.4 Q 36.6 133.9, 36.6 129.3 M 45.2 136.9 Q 48.1 136.9, 49.6 135.0 Q 51.2 133.1, 51.2 129.3 Q 51.2 125.6, 49.6 123.7 Q 48.1 121.8, 45.2 121.8 Q 42.4 121.8, 40.8 123.7 Q 39.2 125.6, 39.2 129.3 Q 39.2 133.1, 40.8 135.0 Q 42.4 136.9, 45.2 136.9 " fill="#FF0000"/>
<path class="atom-3" d="M 126.3 49.3 L 129.1 46.5 L 125.4 45.8 L 125.9 43.9 L 129.3 45.6 L 128.8 41.9 L 130.8 41.9 L 130.3 45.6 L 133.7 44.0 L 134.3 45.8 L 130.6 46.5 L 133.2 49.3 L 131.6 50.5 L 129.8 47.0 L 127.9 50.5 L 126.3 49.3 " fill="#191919"/>
</svg>