<svg xmlns="http://www.w3.org/2000/svg" xmlns:rdkit="http://www.rdkit.org/xml" xmlns:xlink="http://www.w3.org/1999/xlink" version="1.1" baseProfile="full" xml:space="preserve" width="150px" height="150px" viewBox="0 0 150 150">
<!-- END OF HEADER -->

<ellipse cx="54.3" cy="89.6" rx="9.0" ry="9.0" class="atom-1" style="fill:#E5E533;fill-rule:evenodd;stroke:#E5E533;stroke-width:1.0px;stroke-linecap:butt;stroke-linejoin:miter;stroke-opacity:1"/>
<ellipse cx="67.8" cy="46.8" rx="9.0" ry="9.0" class="atom-2" style="fill:#9999E5;fill-rule:evenodd;stroke:#9999E5;stroke-width:1.0px;stroke-linecap:butt;stroke-linejoin:miter;stroke-opacity:1"/>
<ellipse cx="111.6" cy="37.0" rx="9.0" ry="9.0" class="atom-3" style="fill:#E5E533;fill-rule:evenodd;stroke:#E5E533;stroke-width:1.0px;stroke-linecap:butt;stroke-linejoin:miter;stroke-opacity:1"/>
<path class="bond-0 atom-0 atom-1" d="M 15.0,98.4 L 54.3,89.6" style="fill:none;fill-rule:evenodd;stroke:#E5E5E5;stroke-width:2.4px;stroke-linecap:butt;stroke-linejoin:miter;stroke-opacity:1"/>
<path class="bond-1 atom-1 atom-2" d="M 54.3,89.6 L 67.8,46.8" style="fill:none;fill-rule:evenodd;stroke:#000000;stroke-width:2.0px;stroke-linecap:butt;stroke-linejoin:miter;stroke-opacity:1"/>
<path class="bond-1 atom-1 atom-2" d="M 61.9,87.9 L 73.0,52.5" style="fill:none;fill-rule:evenodd;stroke:#000000;stroke-width:2.0px;stroke-linecap:butt;stroke-linejoin:miter;stroke-opacity:1;stroke-dasharray:6,4"/>
<path class="bond-2 atom-2 atom-3" d="M 67.8,46.8 L 111.6,37.0" style="fill:none;fill-rule:evenodd;stroke:#000000;stroke-width:2.0px;stroke-linecap:butt;stroke-linejoin:miter;stroke-opacity:1"/>
<path class="bond-2 atom-2 atom-3" d="M 73.0,52.5 L 109.3,44.4" style="fill:none;fill-rule:evenodd;stroke:#000000;stroke-width:2.0px;stroke-linecap:butt;stroke-linejoin:miter;stroke-opacity:1;stroke-dasharray:6,4"/>
<path class="bond-3 atom-3 atom-4" d="M 111.6,37.0 L 137.5,65.1" style="fill:none;fill-rule:evenodd;stroke:#E5E5E5;stroke-width:2.4px;stroke-linecap:butt;stroke-linejoin:miter;stroke-opacity:1"/>
<path class="bond-3 atom-3 atom-4" d="M 109.3,44.4 L 132.5,69.7" style="fill:none;fill-rule:evenodd;stroke:#E5E5E5;stroke-width:2.4px;stroke-linecap:butt;stroke-linejoin:miter;stroke-opacity:1;stroke-dasharray:6,4"/>
<path class="bond-4 atom-5 atom-1" d="M 77.7,120.1 L 50.5,90.4" style="fill:none;fill-rule:evenodd;stroke:#E5E5E5;stroke-width:2.4px;stroke-linecap:butt;stroke-linejoin:miter;stroke-opacity:1"/>
<path class="bond-4 atom-5 atom-1" d="M 82.7,115.5 L 55.5,85.9" style="fill:none;fill-rule:evenodd;stroke:#E5E5E5;stroke-width:2.4px;stroke-linecap:butt;stroke-linejoin:miter;stroke-opacity:1;stroke-dasharray:6,4"/>
<path d="M 67.1,48.9 L 67.8,46.8 L 70.0,46.3" style="fill:none;stroke:#000000;stroke-width:2.0px;stroke-linecap:butt;stroke-linejoin:miter;stroke-opacity:1;"/>
<path d="M 110.5,37.2 L 111.6,37.0 L 112.2,37.7" style="fill:none;stroke:#000000;stroke-width:2.0px;stroke-linecap:butt;stroke-linejoin:miter;stroke-opacity:1;"/>
<path class="atom-0" d="M 8.1 98.0 L 10.0 96.1 L 7.5 95.6 L 7.9 94.3 L 10.2 95.4 L 9.8 92.9 L 11.2 92.9 L 10.8 95.4 L 13.1 94.3 L 13.5 95.6 L 11.0 96.0 L 12.8 98.0 L 11.7 98.7 L 10.5 96.4 L 9.2 98.7 L 8.1 98.0 " fill="#191919"/>
<path class="atom-4" d="M 137.1 70.9 L 139.0 69.0 L 136.5 68.5 L 136.9 67.2 L 139.1 68.4 L 138.8 65.9 L 140.2 65.8 L 139.8 68.3 L 142.1 67.3 L 142.5 68.5 L 140.0 68.9 L 141.8 70.9 L 140.7 71.7 L 139.4 69.3 L 138.2 71.7 L 137.1 70.9 " fill="#191919"/>
<path class="atom-5" d="M 82.3 121.2 L 84.2 119.3 L 81.7 118.8 L 82.1 117.6 L 84.4 118.7 L 84.0 116.2 L 85.4 116.2 L 85.0 118.7 L 87.3 117.6 L 87.7 118.8 L 85.2 119.3 L 87.0 121.2 L 85.9 122.0 L 84.7 119.6 L 83.4 122.0 L 82.3 121.2 " fill="#191919"/>
</svg>