<svg xmlns="http://www.w3.org/2000/svg" xmlns:rdkit="http://www.rdkit.org/xml" xmlns:xlink="http://www.w3.org/1999/xlink" version="1.1" baseProfile="full" xml:space="preserve" width="150px" height="150px" viewBox="0 0 150 150">
<!-- END OF HEADER -->

<ellipse cx="66.4" cy="121.4" rx="20.8" ry="20.8" class="atom-1" style="fill:#9999E5;fill-rule:evenodd;stroke:#9999E5;stroke-width:1.0px;stroke-linecap:butt;stroke-linejoin:miter;stroke-opacity:1"/>
<path class="bond-0 atom-0 atom-1" d="M 104.4,26.5 L 79.4,106.0" style="fill:none;fill-rule:evenodd;stroke:#E5E5E5;stroke-width:5.5px;stroke-linecap:butt;stroke-linejoin:miter;stroke-opacity:1"/>
<path class="bond-0 atom-0 atom-1" d="M 89.5,21.8 L 64.6,101.3" style="fill:none;fill-rule:evenodd;stroke:#E5E5E5;stroke-width:5.5px;stroke-linecap:butt;stroke-linejoin:miter;stroke-opacity:1"/>
<path class="atom-0" d="M 92.2 19.0 L 96.4 14.8 L 90.8 13.7 L 91.7 10.8 L 96.8 13.4 L 96.0 7.8 L 99.0 7.8 L 98.2 13.3 L 103.4 10.9 L 104.2 13.7 L 98.6 14.7 L 102.6 19.0 L 100.2 20.7 L 97.4 15.5 L 94.6 20.7 L 92.2 19.0 " fill="#191919"/>
<path class="atom-1" d="M 53.4 121.5 Q 53.4 114.7, 56.8 110.9 Q 60.2 107.1, 66.4 107.1 Q 72.7 107.1, 76.1 110.9 Q 79.4 114.7, 79.4 121.5 Q 79.4 128.4, 76.0 132.3 Q 72.6 136.2, 66.4 136.2 Q 60.2 136.2, 56.8 132.3 Q 53.4 128.4, 53.4 121.5 M 66.4 133.0 Q 70.8 133.0, 73.1 130.1 Q 75.4 127.2, 75.4 121.5 Q 75.4 115.9, 73.1 113.1 Q 70.8 110.3, 66.4 110.3 Q 62.1 110.3, 59.8 113.1 Q 57.4 115.9, 57.4 121.5 Q 57.4 127.2, 59.8 130.1 Q 62.1 133.0, 66.4 133.0 " fill="#FF0000"/>
</svg>