<svg xmlns="http://www.w3.org/2000/svg" xmlns:rdkit="http://www.rdkit.org/xml" xmlns:xlink="http://www.w3.org/1999/xlink" version="1.1" baseProfile="full" xml:space="preserve" width="150px" height="150px" viewBox="0 0 150 150">
<!-- END OF HEADER -->

<ellipse cx="102.8" cy="61.9" rx="20.1" ry="20.1" class="atom-1" style="fill:#9999E5;fill-rule:evenodd;stroke:#9999E5;stroke-width:1.0px;stroke-linecap:butt;stroke-linejoin:miter;stroke-opacity:1"/>
<path class="bond-0 atom-0 atom-1" d="M 24.4,104.3 L 86.5,70.7" style="fill:none;fill-rule:evenodd;stroke:#E5E5E5;stroke-width:5.4px;stroke-linecap:butt;stroke-linejoin:miter;stroke-opacity:1"/>
<path class="atom-0" d="M 9.0 106.5 L 13.2 102.3 L 7.6 101.2 L 8.5 98.3 L 13.6 100.9 L 12.8 95.3 L 15.8 95.3 L 15.0 100.9 L 20.2 98.5 L 21.0 101.2 L 15.4 102.2 L 19.4 106.5 L 17.0 108.3 L 14.2 103.0 L 11.4 108.3 L 9.0 106.5 " fill="#191919"/>
<path class="atom-1" d="M 89.8 61.9 Q 89.8 55.1, 93.2 51.3 Q 96.5 47.5, 102.8 47.5 Q 109.1 47.5, 112.4 51.3 Q 115.8 55.1, 115.8 61.9 Q 115.8 68.8, 112.4 72.7 Q 109.0 76.6, 102.8 76.6 Q 96.6 76.6, 93.2 72.7 Q 89.8 68.9, 89.8 61.9 M 102.8 73.4 Q 107.1 73.4, 109.4 70.5 Q 111.8 67.6, 111.8 61.9 Q 111.8 56.4, 109.4 53.6 Q 107.1 50.7, 102.8 50.7 Q 98.5 50.7, 96.1 53.5 Q 93.8 56.3, 93.8 61.9 Q 93.8 67.7, 96.1 70.5 Q 98.5 73.4, 102.8 73.4 " fill="#FF0000"/>
<path class="atom-1" d="M 120.2 47.9 L 124.0 47.9 L 124.0 59.9 L 138.5 59.9 L 138.5 47.9 L 142.4 47.9 L 142.4 76.2 L 138.5 76.2 L 138.5 63.1 L 124.0 63.1 L 124.0 76.2 L 120.2 76.2 L 120.2 47.9 " fill="#FF0000"/>
</svg>