<svg xmlns="http://www.w3.org/2000/svg" xmlns:rdkit="http://www.rdkit.org/xml" xmlns:xlink="http://www.w3.org/1999/xlink" version="1.1" baseProfile="full" xml:space="preserve" width="150px" height="150px" viewBox="0 0 150 150">
<!-- END OF HEADER -->

<ellipse cx="36.9" cy="41.4" rx="19.9" ry="19.9" class="atom-1" style="fill:#9999E5;fill-rule:evenodd;stroke:#9999E5;stroke-width:1.0px;stroke-linecap:butt;stroke-linejoin:miter;stroke-opacity:1"/>
<path class="bond-0 atom-0 atom-1" d="M 12.6,118.9 L 36.9,41.4" style="fill:none;fill-rule:evenodd;stroke:#E5E5E5;stroke-width:5.3px;stroke-linecap:butt;stroke-linejoin:miter;stroke-opacity:1"/>
<path class="bond-0 atom-0 atom-1" d="M 26.9,123.4 L 48.6,54.1" style="fill:none;fill-rule:evenodd;stroke:#E5E5E5;stroke-width:5.3px;stroke-linecap:butt;stroke-linejoin:miter;stroke-opacity:1;stroke-dasharray:6,4"/>
<path class="bond-1 atom-1 atom-2" d="M 36.9,41.4 L 125.9,21.5" style="fill:none;fill-rule:evenodd;stroke:#E5E5E5;stroke-width:5.3px;stroke-linecap:butt;stroke-linejoin:miter;stroke-opacity:1"/>
<path class="bond-1 atom-1 atom-2" d="M 48.6,54.1 L 129.1,36.1" style="fill:none;fill-rule:evenodd;stroke:#E5E5E5;stroke-width:5.3px;stroke-linecap:butt;stroke-linejoin:miter;stroke-opacity:1;stroke-dasharray:6,4"/>
<path d="M 35.7,45.3 L 36.9,41.4 L 41.3,40.4" style="fill:none;stroke:#E5E5E5;stroke-width:5.3px;stroke-linecap:butt;stroke-linejoin:miter;stroke-opacity:1;"/>
<path class="atom-0" d="M 8.9 135.7 L 13.0 131.4 L 7.5 130.3 L 8.3 127.5 L 13.4 130.0 L 12.7 124.5 L 15.7 124.4 L 14.8 130.0 L 20.0 127.6 L 20.9 130.3 L 15.3 131.3 L 19.3 135.6 L 16.8 137.4 L 14.1 132.1 L 11.3 137.4 L 8.9 135.7 " fill="#191919"/>
<path class="atom-2" d="M 130.5 23.8 L 134.6 19.6 L 129.1 18.5 L 130.0 15.7 L 135.0 18.2 L 134.3 12.7 L 137.3 12.6 L 136.5 18.2 L 141.6 15.8 L 142.5 18.5 L 136.9 19.5 L 140.9 23.8 L 138.5 25.6 L 135.7 20.3 L 132.9 25.6 L 130.5 23.8 " fill="#191919"/>
</svg>