<svg xmlns="http://www.w3.org/2000/svg" xmlns:rdkit="http://www.rdkit.org/xml" xmlns:xlink="http://www.w3.org/1999/xlink" version="1.1" baseProfile="full" xml:space="preserve" width="150px" height="150px" viewBox="0 0 150 150">
<!-- END OF HEADER -->

<ellipse cx="51.8" cy="66.8" rx="10.1" ry="10.1" class="atom-1" style="fill:#9999E5;fill-rule:evenodd;stroke:#9999E5;stroke-width:1.0px;stroke-linecap:butt;stroke-linejoin:miter;stroke-opacity:1"/>
<path class="bond-0 atom-0 atom-1" d="M 7.5,90.8 L 51.8,66.8" style="fill:none;fill-rule:evenodd;stroke:#000000;stroke-width:2.0px;stroke-linecap:butt;stroke-linejoin:miter;stroke-opacity:1"/>
<path class="bond-1 atom-1 atom-2" d="M 51.8,66.8 L 94.8,93.2" style="fill:none;fill-rule:evenodd;stroke:#000000;stroke-width:2.0px;stroke-linecap:butt;stroke-linejoin:miter;stroke-opacity:1"/>
<path class="bond-2 atom-2 atom-3" d="M 94.8,93.2 L 137.4,70.2" style="fill:none;fill-rule:evenodd;stroke:#E5E5E5;stroke-width:2.7px;stroke-linecap:butt;stroke-linejoin:miter;stroke-opacity:1"/>
<path d="M 49.6,68.0 L 51.8,66.8 L 54.0,68.2" style="fill:none;stroke:#000000;stroke-width:2.0px;stroke-linecap:butt;stroke-linejoin:miter;stroke-opacity:1;"/>
<path d="M 93.7,92.6 L 94.8,93.2 L 95.8,92.7" style="fill:none;stroke:#000000;stroke-width:2.0px;stroke-linecap:butt;stroke-linejoin:miter;stroke-opacity:1;"/>
<path class="atom-3" d="M 136.4 67.7 L 138.5 65.5 L 135.7 65.0 L 136.2 63.5 L 138.7 64.8 L 138.4 62.0 L 139.9 62.0 L 139.5 64.8 L 142.1 63.6 L 142.5 65.0 L 139.7 65.5 L 141.7 67.7 L 140.5 68.5 L 139.1 65.9 L 137.7 68.5 L 136.4 67.7 " fill="#191919"/>
</svg>