<svg xmlns="http://www.w3.org/2000/svg" xmlns:rdkit="http://www.rdkit.org/xml" xmlns:xlink="http://www.w3.org/1999/xlink" version="1.1" baseProfile="full" xml:space="preserve" width="150px" height="150px" viewBox="0 0 150 150">
<!-- END OF HEADER -->

<ellipse cx="53.2" cy="71.5" rx="16.7" ry="16.7" class="atom-1" style="fill:#9999E5;fill-rule:evenodd;stroke:#9999E5;stroke-width:1.0px;stroke-linecap:butt;stroke-linejoin:miter;stroke-opacity:1"/>
<path class="bond-0 atom-0 atom-1" d="M 128.5,71.5 L 65.0,71.5" style="fill:none;fill-rule:evenodd;stroke:#E5E5E5;stroke-width:4.5px;stroke-linecap:butt;stroke-linejoin:miter;stroke-opacity:1"/>
<path class="atom-0" d="M 132.4 68.9 L 135.9 65.3 L 131.3 64.4 L 132.0 62.0 L 136.2 64.2 L 135.6 59.5 L 138.1 59.5 L 137.4 64.1 L 141.8 62.1 L 142.5 64.4 L 137.8 65.3 L 141.2 68.8 L 139.1 70.3 L 136.8 65.9 L 134.5 70.3 L 132.4 68.9 " fill="#191919"/>
<path class="atom-1" d="M 7.5 59.7 L 10.7 59.7 L 10.7 69.7 L 22.8 69.7 L 22.8 59.7 L 26.0 59.7 L 26.0 83.4 L 22.8 83.4 L 22.8 72.4 L 10.7 72.4 L 10.7 83.4 L 7.5 83.4 L 7.5 59.7 " fill="#0000FF"/>
<path class="atom-1" d="M 30.7 82.5 Q 31.3 81.1, 32.6 80.2 Q 34.0 79.4, 35.9 79.4 Q 38.3 79.4, 39.6 80.7 Q 40.9 82.0, 40.9 84.2 Q 40.9 86.6, 39.2 88.7 Q 37.5 90.9, 33.9 93.4 L 41.2 93.4 L 41.2 95.2 L 30.6 95.2 L 30.6 93.7 Q 33.5 91.7, 35.3 90.1 Q 37.0 88.6, 37.9 87.2 Q 38.7 85.8, 38.7 84.3 Q 38.7 82.8, 37.9 82.0 Q 37.2 81.2, 35.9 81.2 Q 34.6 81.2, 33.8 81.7 Q 33.0 82.2, 32.4 83.3 L 30.7 82.5 " fill="#0000FF"/>
<path class="atom-1" d="M 48.0 59.7 L 55.8 72.2 Q 56.5 73.5, 57.8 75.7 Q 59.0 77.9, 59.1 78.1 L 59.1 59.7 L 62.2 59.7 L 62.2 83.4 L 59.0 83.4 L 50.6 69.6 Q 49.7 68.0, 48.6 66.2 Q 47.6 64.4, 47.3 63.8 L 47.3 83.4 L 44.2 83.4 L 44.2 59.7 L 48.0 59.7 " fill="#0000FF"/>
</svg>