<svg xmlns="http://www.w3.org/2000/svg" xmlns:rdkit="http://www.rdkit.org/xml" xmlns:xlink="http://www.w3.org/1999/xlink" version="1.1" baseProfile="full" xml:space="preserve" width="150px" height="150px" viewBox="0 0 150 150">
<!-- END OF HEADER -->

<ellipse cx="86.3" cy="55.3" rx="15.1" ry="15.1" class="atom-1" style="fill:#9999E5;fill-rule:evenodd;stroke:#9999E5;stroke-width:1.0px;stroke-linecap:butt;stroke-linejoin:miter;stroke-opacity:1"/>
<path class="bond-0 atom-0 atom-1" d="M 20.1,70.1 L 74.0,58.0" style="fill:none;fill-rule:evenodd;stroke:#E5E5E5;stroke-width:4.0px;stroke-linecap:butt;stroke-linejoin:miter;stroke-opacity:1"/>
<path class="bond-1 atom-1 atom-2" d="M 98.6,68.7 L 129.9,102.7" style="fill:none;fill-rule:evenodd;stroke:#E5E5E5;stroke-width:4.0px;stroke-linecap:butt;stroke-linejoin:miter;stroke-opacity:1"/>
<path class="atom-0" d="M 8.5 69.4 L 11.7 66.2 L 7.5 65.3 L 8.1 63.2 L 12.0 65.1 L 11.4 60.9 L 13.7 60.9 L 13.1 65.1 L 17.0 63.3 L 17.6 65.3 L 13.4 66.1 L 16.4 69.3 L 14.6 70.7 L 12.5 66.7 L 10.4 70.7 L 8.5 69.4 " fill="#191919"/>
<path class="atom-1" d="M 76.5 55.3 Q 76.5 50.2, 79.0 47.3 Q 81.6 44.5, 86.3 44.5 Q 91.0 44.5, 93.6 47.3 Q 96.1 50.2, 96.1 55.3 Q 96.1 60.5, 93.6 63.5 Q 91.0 66.4, 86.3 66.4 Q 81.6 66.4, 79.0 63.5 Q 76.5 60.6, 76.5 55.3 M 86.3 64.0 Q 89.6 64.0, 91.3 61.8 Q 93.1 59.6, 93.1 55.3 Q 93.1 51.1, 91.3 49.0 Q 89.6 46.9, 86.3 46.9 Q 83.0 46.9, 81.3 49.0 Q 79.5 51.1, 79.5 55.3 Q 79.5 59.7, 81.3 61.8 Q 83.0 64.0, 86.3 64.0 " fill="#FF0000"/>
<path class="atom-2" d="M 133.4 108.5 L 136.5 105.3 L 132.4 104.5 L 133.0 102.3 L 136.8 104.3 L 136.3 100.1 L 138.6 100.0 L 137.9 104.2 L 141.8 102.4 L 142.5 104.5 L 138.3 105.3 L 141.3 108.5 L 139.4 109.8 L 137.4 105.8 L 135.2 109.8 L 133.4 108.5 " fill="#191919"/>
</svg>