<svg xmlns="http://www.w3.org/2000/svg" xmlns:rdkit="http://www.rdkit.org/xml" xmlns:xlink="http://www.w3.org/1999/xlink" version="1.1" baseProfile="full" xml:space="preserve" width="150px" height="150px" viewBox="0 0 150 150">
<!-- END OF HEADER -->

<ellipse cx="86.1" cy="89.0" rx="14.8" ry="14.8" class="atom-1" style="fill:#9999E5;fill-rule:evenodd;stroke:#9999E5;stroke-width:1.0px;stroke-linecap:butt;stroke-linejoin:miter;stroke-opacity:1"/>
<path class="bond-0 atom-0 atom-1" d="M 21.1,103.5 L 86.1,89.0" style="fill:none;fill-rule:evenodd;stroke:#E5E5E5;stroke-width:4.0px;stroke-linecap:butt;stroke-linejoin:miter;stroke-opacity:1"/>
<path class="bond-1 atom-1 atom-2" d="M 90.4,93.7 L 113.2,21.2" style="fill:none;fill-rule:evenodd;stroke:#E5E5E5;stroke-width:4.0px;stroke-linecap:butt;stroke-linejoin:miter;stroke-opacity:1"/>
<path class="bond-1 atom-1 atom-2" d="M 79.8,90.4 L 102.6,17.9" style="fill:none;fill-rule:evenodd;stroke:#E5E5E5;stroke-width:4.0px;stroke-linecap:butt;stroke-linejoin:miter;stroke-opacity:1;stroke-dasharray:6,4"/>
<path class="bond-2 atom-3 atom-1" d="M 124.8,139.3 L 79.8,90.4" style="fill:none;fill-rule:evenodd;stroke:#E5E5E5;stroke-width:4.0px;stroke-linecap:butt;stroke-linejoin:miter;stroke-opacity:1"/>
<path class="bond-2 atom-3 atom-1" d="M 133.0,131.7 L 88.0,82.8" style="fill:none;fill-rule:evenodd;stroke:#E5E5E5;stroke-width:4.0px;stroke-linecap:butt;stroke-linejoin:miter;stroke-opacity:1;stroke-dasharray:6,4"/>
<path class="atom-0" d="M 9.7 102.8 L 12.8 99.6 L 8.7 98.8 L 9.4 96.7 L 13.1 98.6 L 12.6 94.5 L 14.8 94.4 L 14.2 98.6 L 18.0 96.8 L 18.7 98.8 L 14.5 99.6 L 17.5 102.8 L 15.7 104.1 L 13.6 100.1 L 11.6 104.1 L 9.7 102.8 " fill="#191919"/>
<path class="atom-2" d="M 104.3 15.8 L 107.4 12.7 L 103.3 11.9 L 103.9 9.8 L 107.7 11.7 L 107.2 7.5 L 109.4 7.5 L 108.8 11.6 L 112.6 9.8 L 113.3 11.9 L 109.1 12.6 L 112.1 15.8 L 110.3 17.1 L 108.2 13.2 L 106.1 17.1 L 104.3 15.8 " fill="#191919"/>
<path class="atom-3" d="M 132.3 141.2 L 135.4 138.1 L 131.3 137.2 L 131.9 135.1 L 135.7 137.0 L 135.2 132.9 L 137.4 132.9 L 136.8 137.0 L 140.6 135.2 L 141.3 137.2 L 137.1 138.0 L 140.1 141.2 L 138.3 142.5 L 136.2 138.6 L 134.1 142.5 L 132.3 141.2 " fill="#191919"/>
</svg>