<svg xmlns="http://www.w3.org/2000/svg" xmlns:rdkit="http://www.rdkit.org/xml" xmlns:xlink="http://www.w3.org/1999/xlink" version="1.1" baseProfile="full" xml:space="preserve" width="150px" height="150px" viewBox="0 0 150 150">
<!-- END OF HEADER -->

<ellipse cx="58.0" cy="81.9" rx="17.5" ry="17.5" class="atom-1" style="fill:#9999E5;fill-rule:evenodd;stroke:#9999E5;stroke-width:1.0px;stroke-linecap:butt;stroke-linejoin:miter;stroke-opacity:1"/>
<path class="bond-0 atom-0 atom-1" d="M 111.1,135.0 L 70.3,94.2" style="fill:none;fill-rule:evenodd;stroke:#E5E5E5;stroke-width:4.7px;stroke-linecap:butt;stroke-linejoin:miter;stroke-opacity:1"/>
<path class="bond-1 atom-1 atom-2" d="M 70.3,69.6 L 118.2,21.7" style="fill:none;fill-rule:evenodd;stroke:#E5E5E5;stroke-width:4.7px;stroke-linecap:butt;stroke-linejoin:miter;stroke-opacity:1"/>
<path class="atom-0" d="M 115.1 141.0 L 118.8 137.3 L 114.0 136.3 L 114.7 133.8 L 119.1 136.1 L 118.5 131.2 L 121.1 131.2 L 120.4 136.0 L 124.9 133.9 L 125.7 136.3 L 120.8 137.2 L 124.3 141.0 L 122.1 142.5 L 119.7 137.9 L 117.3 142.5 L 115.1 141.0 " fill="#191919"/>
<path class="atom-1" d="M 24.3 69.5 L 27.7 69.5 L 27.7 80.1 L 40.3 80.1 L 40.3 69.5 L 43.7 69.5 L 43.7 94.3 L 40.3 94.3 L 40.3 82.9 L 27.7 82.9 L 27.7 94.3 L 24.3 94.3 L 24.3 69.5 " fill="#0000FF"/>
<path class="atom-1" d="M 52.5 69.5 L 60.6 82.7 Q 61.4 84.0, 62.7 86.3 Q 64.0 88.6, 64.1 88.8 L 64.1 69.5 L 67.4 69.5 L 67.4 94.3 L 64.0 94.3 L 55.3 80.0 Q 54.3 78.3, 53.2 76.4 Q 52.1 74.4, 51.8 73.8 L 51.8 94.3 L 48.6 94.3 L 48.6 69.5 L 52.5 69.5 " fill="#0000FF"/>
<path class="atom-2" d="M 115.1 17.3 L 118.8 13.6 L 114.0 12.6 L 114.7 10.2 L 119.1 12.4 L 118.5 7.5 L 121.1 7.5 L 120.4 12.4 L 124.9 10.3 L 125.7 12.6 L 120.8 13.6 L 124.3 17.3 L 122.1 18.8 L 119.7 14.2 L 117.3 18.8 L 115.1 17.3 " fill="#191919"/>
</svg>