<svg xmlns="http://www.w3.org/2000/svg" xmlns:rdkit="http://www.rdkit.org/xml" xmlns:xlink="http://www.w3.org/1999/xlink" version="1.1" baseProfile="full" xml:space="preserve" width="150px" height="150px" viewBox="0 0 150 150">
<!-- END OF HEADER -->

<ellipse cx="61.5" cy="70.0" rx="13.1" ry="13.1" class="atom-1" style="fill:#E5E533;fill-rule:evenodd;stroke:#E5E533;stroke-width:1.0px;stroke-linecap:butt;stroke-linejoin:miter;stroke-opacity:1"/>
<ellipse cx="34.5" cy="129.4" rx="13.1" ry="13.1" class="atom-2" style="fill:#9999E5;fill-rule:evenodd;stroke:#9999E5;stroke-width:1.0px;stroke-linecap:butt;stroke-linejoin:miter;stroke-opacity:1"/>
<path class="bond-0 atom-0 atom-1" d="M 28.4,15.3 L 67.1,69.5" style="fill:none;fill-rule:evenodd;stroke:#E5E5E5;stroke-width:3.5px;stroke-linecap:butt;stroke-linejoin:miter;stroke-opacity:1"/>
<path class="bond-0 atom-0 atom-1" d="M 20.4,21.0 L 59.1,75.2" style="fill:none;fill-rule:evenodd;stroke:#E5E5E5;stroke-width:3.5px;stroke-linecap:butt;stroke-linejoin:miter;stroke-opacity:1;stroke-dasharray:6,4"/>
<path class="bond-1 atom-1 atom-2" d="M 58.2,65.4 L 46.7,90.7" style="fill:none;fill-rule:evenodd;stroke:#000000;stroke-width:2.0px;stroke-linecap:butt;stroke-linejoin:miter;stroke-opacity:1"/>
<path class="bond-1 atom-1 atom-2" d="M 46.7,90.7 L 35.2,115.9" style="fill:none;fill-rule:evenodd;stroke:#FF0000;stroke-width:2.0px;stroke-linecap:butt;stroke-linejoin:miter;stroke-opacity:1"/>
<path class="bond-1 atom-1 atom-2" d="M 67.1,69.5 L 55.6,94.7" style="fill:none;fill-rule:evenodd;stroke:#000000;stroke-width:2.0px;stroke-linecap:butt;stroke-linejoin:miter;stroke-opacity:1"/>
<path class="bond-1 atom-1 atom-2" d="M 55.6,94.7 L 44.1,120.0" style="fill:none;fill-rule:evenodd;stroke:#FF0000;stroke-width:2.0px;stroke-linecap:butt;stroke-linejoin:miter;stroke-opacity:1"/>
<path class="bond-2 atom-1 atom-3" d="M 59.1,75.2 L 120.4,69.2" style="fill:none;fill-rule:evenodd;stroke:#E5E5E5;stroke-width:3.5px;stroke-linecap:butt;stroke-linejoin:miter;stroke-opacity:1"/>
<path class="bond-2 atom-1 atom-3" d="M 58.2,65.4 L 119.5,59.5" style="fill:none;fill-rule:evenodd;stroke:#E5E5E5;stroke-width:3.5px;stroke-linecap:butt;stroke-linejoin:miter;stroke-opacity:1;stroke-dasharray:6,4"/>
<path d="M 66.1,68.1 L 67.1,69.5 L 66.8,70.1" style="fill:none;stroke:#E5E5E5;stroke-width:3.5px;stroke-linecap:butt;stroke-linejoin:miter;stroke-opacity:1;"/>
<path class="atom-0" d="M 20.1 14.8 L 22.8 12.1 L 19.2 11.3 L 19.7 9.5 L 23.0 11.2 L 22.6 7.5 L 24.5 7.5 L 24.0 11.1 L 27.3 9.6 L 27.9 11.3 L 24.3 12.0 L 26.9 14.8 L 25.3 16.0 L 23.5 12.5 L 21.6 16.0 L 20.1 14.8 " fill="#191919"/>
<path class="atom-2" d="M 26.0 129.5 Q 26.0 125.1, 28.2 122.6 Q 30.4 120.1, 34.5 120.1 Q 38.6 120.1, 40.7 122.6 Q 42.9 125.1, 42.9 129.5 Q 42.9 134.0, 40.7 136.5 Q 38.5 139.1, 34.5 139.1 Q 30.4 139.1, 28.2 136.5 Q 26.0 134.0, 26.0 129.5 M 34.5 137.0 Q 37.3 137.0, 38.8 135.1 Q 40.3 133.2, 40.3 129.5 Q 40.3 125.9, 38.8 124.0 Q 37.3 122.2, 34.5 122.2 Q 31.6 122.2, 30.1 124.0 Q 28.6 125.8, 28.6 129.5 Q 28.6 133.2, 30.1 135.1 Q 31.6 137.0, 34.5 137.0 " fill="#FF0000"/>
<path class="atom-3" d="M 123.0 61.7 L 125.7 58.9 L 122.1 58.2 L 122.6 56.3 L 126.0 58.0 L 125.5 54.3 L 127.4 54.3 L 126.9 57.9 L 130.3 56.4 L 130.8 58.2 L 127.2 58.8 L 129.8 61.6 L 128.2 62.8 L 126.4 59.3 L 124.6 62.8 L 123.0 61.7 " fill="#191919"/>
</svg>