<svg xmlns="http://www.w3.org/2000/svg" xmlns:rdkit="http://www.rdkit.org/xml" xmlns:xlink="http://www.w3.org/1999/xlink" version="1.1" baseProfile="full" xml:space="preserve" width="150px" height="150px" viewBox="0 0 150 150">
<!-- END OF HEADER -->

<ellipse cx="86.2" cy="55.4" rx="15.1" ry="15.1" class="atom-1" style="fill:#9999E5;fill-rule:evenodd;stroke:#9999E5;stroke-width:1.0px;stroke-linecap:butt;stroke-linejoin:miter;stroke-opacity:1"/>
<path class="bond-0 atom-0 atom-1" d="M 18.9,64.7 L 74.4,52.2" style="fill:none;fill-rule:evenodd;stroke:#E5E5E5;stroke-width:4.0px;stroke-linecap:butt;stroke-linejoin:miter;stroke-opacity:1"/>
<path class="bond-0 atom-0 atom-1" d="M 21.4,75.8 L 76.9,63.3" style="fill:none;fill-rule:evenodd;stroke:#E5E5E5;stroke-width:4.0px;stroke-linecap:butt;stroke-linejoin:miter;stroke-opacity:1;stroke-dasharray:6,4"/>
<path class="bond-1 atom-1 atom-2" d="M 92.7,70.7 L 125.7,106.5" style="fill:none;fill-rule:evenodd;stroke:#E5E5E5;stroke-width:4.0px;stroke-linecap:butt;stroke-linejoin:miter;stroke-opacity:1"/>
<path class="bond-1 atom-1 atom-2" d="M 101.0,63.0 L 134.1,98.8" style="fill:none;fill-rule:evenodd;stroke:#E5E5E5;stroke-width:4.0px;stroke-linecap:butt;stroke-linejoin:miter;stroke-opacity:1;stroke-dasharray:6,4"/>
<path class="atom-0" d="M 8.5 69.6 L 11.7 66.4 L 7.5 65.5 L 8.1 63.4 L 12.0 65.3 L 11.4 61.1 L 13.7 61.1 L 13.1 65.3 L 17.0 63.5 L 17.6 65.5 L 13.4 66.3 L 16.4 69.5 L 14.6 70.9 L 12.5 66.9 L 10.4 70.9 L 8.5 69.6 " fill="#191919"/>
<path class="atom-1" d="M 81.5 44.7 L 88.5 56.0 Q 89.2 57.1, 90.3 59.1 Q 91.4 61.1, 91.5 61.3 L 91.5 44.7 L 94.3 44.7 L 94.3 66.0 L 91.4 66.0 L 83.9 53.7 Q 83.0 52.2, 82.1 50.5 Q 81.2 48.9, 80.9 48.4 L 80.9 66.0 L 78.1 66.0 L 78.1 44.7 L 81.5 44.7 " fill="#0000FF"/>
<path class="atom-2" d="M 133.4 108.5 L 136.5 105.3 L 132.4 104.4 L 133.0 102.3 L 136.9 104.2 L 136.3 100.0 L 138.6 100.0 L 137.9 104.2 L 141.8 102.4 L 142.5 104.4 L 138.3 105.2 L 141.3 108.4 L 139.4 109.8 L 137.4 105.8 L 135.3 109.8 L 133.4 108.5 " fill="#191919"/>
</svg>